<svg xmlns="http://www.w3.org/2000/svg" data-name="Layer 1" viewBox="0 0 512 512"><rect width="61.63" height="203.74" x="400.84" y="243.09" fill="#00acea"/><rect width="61.63" height="145.59" x="285.41" y="301.24" fill="#00acea"/><rect width="61.63" height="203.74" x="169.98" y="243.09" fill="#00acea"/><rect width="61.63" height="110.71" x="54.55" y="336.12" fill="#00acea"/><path fill="#fedb41" d="M280.971,175.548l-.16-.1L220.97,136.883c-.114-.072-.224-.149-.331-.229l3.8-5.148,3.035-4.71,59.86,38.576Z"/><rect width="71.156" height="12" x="340.502" y="139.62" fill="#fedb41" transform="rotate(-39.959 376.08 145.62)"/><rect width="82.772" height="12" x="88.949" y="169.87" fill="#fedb41" transform="rotate(-44.35 130.336 175.871)"/><path fill="#00efd1" d="M188.85 83.15a42.031 42.031 0 1 0 41.99 42A42.042 42.042 0 0 0 188.85 83.15zM316.82 143.14a42 42 0 1 0 41.99 42A42.086 42.086 0 0 0 316.82 143.14zM432.13 59.17a41.99 41.99 0 1 0 41.99 41.99A42.038 42.038 0 0 0 432.13 59.17zM104.224 199.915A42 42 0 1 0 121.86 234.12 41.718 41.718 0 0 0 104.224 199.915z"/></svg>